<?xml version="1.0" encoding="UTF-8"?>
<svg xmlns="http://www.w3.org/2000/svg" xmlns:xlink="http://www.w3.org/1999/xlink" width="64px" height="64px" viewBox="0 0 64 64" version="1.1">
<g id="surface1">
<path style=" stroke:none;fill-rule:nonzero;fill:rgb(18.823529%,19.607843%,51.764706%);fill-opacity:1;" d="M 12 20.648438 L 12 20.601562 Z M 62.898438 29.5 L 62.800781 29.449219 L 62.800781 29.25 L 62.75 29.050781 L 62.648438 28.898438 L 62.449219 28.800781 L 62.25 28.601562 L 62.101562 28.5 L 61.898438 28.449219 L 61.851562 28.449219 L 61.648438 28.300781 L 61.398438 28.148438 L 61.101562 28 L 60.800781 27.898438 L 60.75 27.898438 L 60.5 27.648438 L 60.199219 27.449219 L 59.898438 27.300781 L 59.601562 27.199219 L 59.550781 27.199219 L 59.25 27 L 58.851562 26.851562 L 58.648438 26.800781 L 58.398438 26.648438 L 58.148438 26.550781 L 58.101562 26.550781 L 57.601562 26.449219 L 57.351562 26.449219 L 57 26.5 L 56.851562 26.25 L 56.5 26 L 56.050781 25.898438 L 55.601562 25.898438 L 55.101562 26 L 54.949219 26.050781 L 54.601562 25.898438 L 54.199219 25.800781 L 53.800781 25.75 L 53.398438 25.75 L 53 25.800781 L 52.949219 25.800781 L 52.5 25.648438 L 52.050781 25.5 L 51.601562 25.449219 L 51.300781 25.449219 L 50.898438 25.050781 L 50.449219 24.75 L 50.050781 24.550781 L 49.648438 24.449219 L 49.25 24.449219 L 49 24.5 L 48.75 24.300781 L 48.398438 24.148438 L 48 24.101562 L 47.75 24.148438 L 47.398438 24 L 47 23.949219 L 46.648438 23.898438 L 46.5 23.898438 L 46 23.699219 L 45.398438 23.5 L 44.75 23.5 L 44.199219 23.199219 L 43.601562 23.050781 L 43.199219 23.050781 L 42.300781 22.851562 L 41.75 22.800781 L 41.5 22.800781 L 41.199219 22.5 L 40.800781 22.25 L 40.351562 22.148438 L 39.898438 22.199219 L 39.601562 22.300781 L 39.199219 22.25 L 38.5 22.25 L 38.5 22.199219 L 37.648438 22.050781 L 36.898438 21.949219 L 36.25 21.898438 L 36 21.898438 L 35.5 21.851562 L 35 21.800781 L 34.949219 21.800781 L 34.449219 21.5 L 33.898438 21.351562 L 33.398438 21.300781 L 33 21.300781 L 32.5 21.050781 L 32.050781 20.949219 L 31.601562 20.898438 L 31.5 20.898438 L 30.949219 20.550781 L 30.5 20.398438 L 30.148438 20.351562 L 29.75 20.148438 L 29.199219 20 L 28.699219 20 L 28.148438 19.75 L 27.648438 19.648438 L 27.398438 19.648438 L 26.851562 19.351562 L 26.351562 19.199219 L 25.851562 19.148438 L 25.75 19.148438 L 25 18.800781 L 24.5 18.601562 L 23.949219 18.550781 L 23.898438 18.550781 L 23.550781 18.300781 L 23.25 18.148438 L 22.949219 18.050781 L 22.601562 18 L 22.300781 18.050781 L 21.949219 17.800781 L 21.601562 17.648438 L 21.148438 17.601562 L 20.75 17.601562 L 20.300781 17.699219 L 20.25 17.75 L 19.75 17.550781 L 19.25 17.398438 L 18.800781 17.398438 L 18.398438 17.148438 L 17.949219 17 L 17.550781 16.949219 L 17.199219 17 L 16.851562 17.101562 L 16.550781 16.800781 L 16.25 16.601562 L 15.851562 16.550781 L 15.5 16.648438 L 15.199219 16.800781 L 15 16.648438 L 14.851562 16.550781 L 14.699219 16.5 L 14.5 16.449219 L 14.25 16.449219 L 14.101562 16.5 L 13.851562 16.648438 L 13.800781 16.699219 L 13.351562 16.601562 L 12.949219 16.601562 L 12.601562 16.699219 L 12.351562 17 L 12.148438 17.25 L 12 17.648438 L 11.851562 18 L 11.75 18.398438 L 11.699219 18.800781 L 11.648438 19.601562 L 11.800781 20.25 L 11.949219 20.601562 L 11.898438 19.601562 L 11.949219 18.851562 L 12 18.449219 L 12.101562 18.101562 L 12.199219 17.75 L 12.351562 17.449219 L 12.550781 17.199219 L 12.800781 17 L 13.101562 16.898438 L 13.449219 16.898438 L 13.699219 16.949219 L 13.550781 17.148438 L 13.398438 17.351562 L 13.148438 17.851562 L 12.851562 18.699219 L 12.5 19.851562 L 12.300781 20.75 L 12 20.648438 L 12 20.699219 C 11.5 20.601562 11.449219 20.550781 11.199219 20.449219 L 11.148438 20.148438 L 11.148438 19.851562 L 11.199219 18.601562 L 11.199219 18.300781 L 11.148438 17.699219 L 11.101562 17.449219 L 10.898438 16.949219 L 10.800781 16.699219 L 10.699219 16.5 L 10.550781 16.300781 L 10.101562 16 L 10.101562 15.949219 L 10.148438 15.601562 L 10.199219 15.449219 L 10.300781 15.148438 L 10.050781 15 L 9.800781 15.300781 L 9.648438 15.648438 L 9.5 16 L 9.449219 16.351562 L 9.398438 16.699219 L 9.398438 17.050781 L 9.449219 17.398438 L 9.5 17.5 L 9.449219 17.398438 L 9.300781 17.199219 L 9.101562 16.75 L 9 16.5 L 8.949219 16.199219 L 8.898438 15.601562 L 8.449219 16 L 8.300781 16.300781 L 8.199219 16.648438 L 8.199219 16.949219 L 8.25 17.25 L 8.351562 17.550781 L 8.5 17.851562 L 8.449219 17.851562 L 8.148438 17.800781 L 8.101562 18 L 8.300781 18.101562 L 9 18.601562 L 9.148438 18.75 L 10.25 20 L 10.300781 20.050781 C 7.550781 19 4.550781 17.648438 0.898438 15.949219 C 1.648438 17.199219 4.398438 18.5 5.550781 19.351562 C 6.699219 19.949219 8.300781 20.648438 9.699219 21.199219 L 8.550781 21.449219 L 7.851562 21.601562 L 7.148438 21.851562 L 6.800781 22 L 6.5 22.101562 L 6.199219 22.300781 L 5.949219 22.5 L 5.699219 22.75 L 5.5 23 L 5.351562 23.300781 L 5.25 23.648438 L 5.449219 23.75 L 5.898438 23.300781 L 6.351562 23 L 6.800781 22.75 L 7 22.699219 L 7.148438 22.648438 L 7.851562 22.5 L 8.148438 22.398438 L 9.398438 21.648438 L 9.648438 21.5 L 9.851562 21.398438 L 10 21.351562 L 9.949219 21.25 C 10.050781 21.300781 10.148438 21.300781 10.199219 21.351562 L 10.148438 21.398438 L 8.949219 22 L 8.300781 22.398438 L 7.699219 22.851562 L 7.398438 23.101562 L 7.148438 23.398438 L 7 23.699219 L 6.898438 24 L 6.851562 24.351562 L 6.898438 24.699219 L 7.101562 25.25 L 7.398438 24.648438 L 7.601562 24.351562 L 7.800781 24.101562 L 8 23.898438 L 8.199219 23.75 L 8.699219 23.449219 L 8.699219 23.5 L 8.648438 23.898438 L 8.648438 24.351562 L 8.699219 24.851562 L 8.851562 25.398438 L 9.050781 25.398438 L 9.101562 25.148438 L 9.300781 24.398438 L 9.398438 24.148438 L 9.699219 23.449219 L 10.199219 22.550781 L 10.800781 21.601562 C 10.949219 21.648438 11.148438 21.699219 11.300781 21.800781 L 10.851562 22.648438 L 10.699219 22.949219 L 10.5 23.25 L 10.398438 23.601562 L 10.300781 23.949219 L 10.25 24.300781 L 10.25 24.648438 L 10.300781 24.949219 L 10.449219 25.25 L 10.699219 25.550781 L 11.101562 25.800781 L 11.449219 25.898438 L 11.550781 26.148438 L 11.75 26.398438 L 11.949219 26.601562 L 12.148438 26.75 L 12.351562 26.851562 L 12.550781 26.949219 L 13 27 L 13.101562 27 L 13.300781 27.300781 L 13.601562 27.550781 L 13.949219 27.699219 L 14.351562 27.699219 L 14.699219 27.601562 L 14.75 27.699219 L 15.050781 28 L 15.351562 28.199219 L 15.648438 28.351562 L 16.050781 28.398438 L 16.351562 28.398438 L 16.648438 28.601562 L 17 28.75 L 17.398438 28.851562 L 17.699219 29.101562 L 18.101562 29.300781 L 18.601562 29.398438 L 19.148438 29.449219 L 19.199219 29.5 L 19.550781 29.800781 L 19.949219 30 L 20.300781 30.148438 L 20.75 30.199219 L 21.148438 30.101562 L 21.351562 30.199219 L 21.648438 30.351562 L 21.949219 30.398438 L 22.25 30.398438 L 22.550781 30.351562 L 22.699219 30.449219 L 23.199219 30.601562 L 23.75 30.648438 L 24.398438 30.601562 L 24.550781 30.699219 L 25 30.851562 L 25.5 30.898438 L 26.199219 30.851562 L 26.648438 31 L 27.148438 31.050781 L 27.699219 31 L 27.898438 31.148438 L 28.398438 31.351562 L 28.949219 31.398438 L 29.5 31.351562 L 29.5 31.300781 L 29.800781 31.351562 L 30.300781 31.351562 L 30.851562 31.25 L 31.148438 31.351562 L 31.550781 31.449219 L 31.949219 31.5 L 32.449219 31.5 L 32.550781 31.550781 L 33.050781 31.699219 L 33.550781 31.800781 L 34.101562 31.851562 L 34.648438 31.800781 L 34.648438 31.75 L 34.949219 31.851562 L 35.398438 31.898438 L 35.851562 31.949219 L 35.851562 31.898438 L 36.148438 32 L 36.75 32.050781 L 37.398438 32 L 38.101562 32.050781 L 38.199219 32.101562 L 38.648438 32.199219 L 39.050781 32.25 L 39.5 32.25 L 39.550781 32.300781 L 39.949219 32.449219 L 40.351562 32.5 L 40.398438 32.5 L 40.050781 32.351562 L 39.648438 32.148438 L 39.25 31.898438 L 38.851562 31.550781 L 38.449219 31.199219 L 38.398438 31.148438 L 37 29.300781 L 36.101562 28.351562 L 35.648438 27.898438 L 35.449219 27.75 L 35.648438 27.75 L 36.699219 27.949219 L 37.398438 28.550781 L 38.398438 29.550781 L 39.25 30.449219 L 39.601562 30.800781 L 40 31.148438 L 40.398438 31.449219 L 40.800781 31.75 L 41 31.851562 L 41.199219 31.949219 L 41.5 32.101562 L 41.550781 32.148438 L 41.398438 32.25 L 41 32.5 L 41.398438 32.449219 L 41.75 32.25 L 42.199219 32.398438 L 42.75 32.5 L 43.351562 32.5 L 43.5 32.550781 L 44.050781 32.648438 L 44.601562 32.601562 L 45.148438 32.398438 L 45.648438 32.449219 L 46.25 32.449219 L 46.699219 32.398438 L 47 32.449219 L 47.351562 32.449219 L 48.101562 32.351562 L 48.351562 32.449219 L 48.648438 32.5 L 48.949219 32.449219 L 49.199219 32.300781 L 49.25 32.300781 L 49.648438 32.449219 L 50.050781 32.5 L 50.449219 32.5 L 50.898438 32.398438 L 51.300781 32.199219 L 51.75 31.898438 L 52.101562 31.898438 L 52.550781 31.851562 L 52.949219 31.800781 L 53.199219 31.898438 L 53.601562 31.949219 L 54 32 L 54.398438 31.949219 L 54.800781 31.851562 L 55 32 L 55.449219 32.050781 L 55.851562 32 L 55.898438 32 L 55.5 31.949219 L 55.050781 31.800781 L 54.601562 31.550781 L 54.148438 31.300781 L 53.699219 31 L 51.351562 29.199219 L 52.699219 29.300781 L 53.050781 29.5 L 53.25 29.601562 L 54.949219 30.800781 L 55.199219 30.949219 L 55.800781 31.351562 L 56.25 31.648438 L 56.449219 31.800781 L 56.550781 31.851562 L 56.449219 31.949219 L 56.199219 32 L 56.550781 32.050781 L 56.800781 31.898438 L 56.949219 32 L 57.199219 32.101562 L 57.449219 32.148438 L 57.699219 32.148438 L 57.949219 32.101562 L 58.148438 32.050781 L 58.5 32.101562 L 58.898438 32.050781 L 59.25 31.898438 L 59.601562 31.898438 L 59.898438 31.851562 L 60.199219 31.699219 L 60.449219 31.5 L 60.75 31.5 L 61.050781 31.449219 L 61.300781 31.300781 L 61.601562 31.101562 L 61.550781 31.101562 L 61.398438 31.050781 L 61.351562 31 L 61.148438 30.949219 L 60.648438 30.800781 L 60.5 30.75 L 60.148438 30.550781 L 60 30.449219 L 59.949219 30.398438 L 59.851562 30.351562 L 59.5 30 L 60.101562 30.050781 L 60.25 30.199219 L 60.449219 30.351562 L 60.75 30.550781 L 61 30.5 L 61.101562 30.601562 L 61.550781 30.851562 L 61.75 30.949219 L 61.800781 31 L 61.75 31.050781 L 61.949219 31.101562 L 62.101562 31.101562 L 62.148438 31.050781 L 62.300781 31 L 62.449219 30.898438 L 62.550781 30.699219 L 62.601562 30.5 L 62.699219 30.5 L 62.898438 30.351562 L 62.949219 30.199219 L 63 30.199219 L 63 29.699219 Z M 8.601562 21.898438 L 8 22.25 L 7.75 22.351562 L 7.398438 22.398438 L 6.699219 22.601562 L 6.199219 22.851562 L 5.75 23.148438 L 5.699219 23.199219 L 5.898438 22.851562 L 6.101562 22.601562 L 6.351562 22.398438 L 6.601562 22.199219 L 6.898438 22.050781 L 7.199219 21.898438 L 7.851562 21.699219 L 9.148438 21.398438 Z M 8 23.601562 L 7.601562 24 L 7.398438 24.25 L 7.199219 24.550781 L 7.148438 24.699219 L 7.101562 24.648438 L 7.050781 24.351562 L 7.101562 24.101562 L 7.199219 23.851562 L 7.351562 23.601562 L 7.550781 23.351562 L 7.800781 23.101562 L 8.398438 22.648438 L 9.050781 22.25 L 10.050781 21.699219 L 10 21.851562 L 9.601562 22.101562 L 9.398438 22.25 L 9 22.648438 L 8.851562 22.898438 L 8.75 23.148438 Z M 9.75 22.25 L 9.5 22.601562 L 9.148438 22.898438 L 9.199219 22.800781 L 9.351562 22.601562 L 9.550781 22.398438 Z M 10.101562 22.148438 L 9.550781 23.101562 L 9.101562 24.050781 L 8.851562 24.800781 L 8.851562 24.851562 L 8.75 24.351562 L 8.75 23.949219 L 8.800781 23.601562 L 8.898438 23.300781 L 9.199219 23.101562 L 9.648438 22.75 L 10.101562 22.148438 L 10.199219 21.949219 L 10.25 21.898438 Z M 10.25 16.550781 L 10.300781 16.851562 L 10.351562 17.148438 L 10.398438 17.449219 L 10.351562 17.300781 L 10.199219 16.800781 L 10.148438 16.449219 L 10.148438 16.050781 Z M 8.800781 17.949219 L 8.699219 17.75 L 8.550781 17.449219 L 8.449219 17.148438 L 8.398438 16.898438 L 8.398438 16.601562 L 8.449219 16.351562 L 8.601562 16.101562 L 8.648438 16.050781 L 8.648438 16.199219 L 8.699219 16.550781 L 8.800781 16.851562 L 9.050781 17.351562 L 9.199219 17.550781 L 9.550781 18 L 9.550781 18.050781 L 9.648438 18.398438 L 9.699219 18.5 L 9.5 18.25 L 9.300781 18.101562 L 9.050781 18 Z M 10.050781 19.398438 L 9.601562 18.898438 L 9.300781 18.601562 L 9.050781 18.25 L 9.148438 18.300781 L 9.351562 18.398438 L 9.699219 18.648438 L 9.851562 18.800781 L 10.101562 19.148438 L 10.148438 19.300781 L 10.25 19.601562 Z M 10.300781 18.648438 L 10.199219 18.398438 L 9.898438 18 L 9.800781 17.949219 L 9.648438 17.398438 L 9.5 17 L 9.5 16.648438 L 9.601562 16.351562 L 9.699219 16.050781 L 9.851562 15.75 L 9.898438 15.648438 L 9.898438 16.148438 L 9.949219 16.699219 L 10 16.898438 L 10.148438 17.398438 L 10.25 17.699219 L 10.300781 17.800781 L 10.351562 17.949219 L 10.398438 18.25 L 10.449219 18.800781 L 10.449219 19.050781 L 10.398438 18.949219 Z M 10.398438 21.601562 L 10.449219 21.449219 L 10.5 21.449219 Z M 10.75 20.300781 L 10.699219 20.148438 L 10.75 20.148438 L 10.75 19.5 L 10.898438 20.351562 C 10.800781 20.351562 10.75 20.300781 10.75 20.300781 Z M 10.949219 19.699219 L 10.800781 18.648438 L 10.75 18.398438 L 10.648438 17.648438 L 10.601562 17.351562 L 10.5 16.800781 L 10.449219 16.550781 L 10.648438 16.800781 L 10.75 17 L 10.851562 17.25 L 10.898438 17.5 L 10.949219 17.75 L 11 18.601562 Z M 60.5 28.101562 L 60.699219 28.148438 L 61 28.25 L 61.25 28.351562 L 61.351562 28.398438 L 60.851562 28.398438 L 60.5 28.5 L 60.449219 28.5 L 60.199219 28.601562 L 60.148438 28.601562 L 60 28.648438 L 59.75 28.75 L 59.351562 29.148438 L 59.25 29.300781 L 58.851562 29.25 L 58.648438 29.25 L 58.25 29.199219 L 58.101562 29.199219 L 57.898438 29.148438 L 57.949219 29.050781 L 58.101562 28.851562 L 58.300781 28.648438 L 58.5 28.5 L 58.75 28.351562 L 59 28.25 L 59.101562 28.199219 L 59.449219 28.101562 L 59.648438 28.050781 L 60.101562 28.050781 Z M 59.25 27.398438 L 59.550781 27.398438 L 59.800781 27.449219 L 60.050781 27.601562 L 60.300781 27.800781 L 60.351562 27.851562 L 59.851562 27.851562 L 59.550781 27.898438 L 59.25 27.949219 L 59.101562 28 L 59 28 L 58.800781 28.050781 L 58.398438 28.25 L 58.25 28.351562 L 58.148438 28.398438 L 58.101562 28.449219 L 57.949219 28.648438 L 57.898438 28.699219 L 57.75 28.949219 L 57.648438 29.101562 L 56.550781 28.949219 L 56.300781 28.898438 L 56.25 28.898438 L 56.550781 28.699219 L 56.601562 28.648438 L 57.449219 28.101562 L 57.800781 27.851562 L 58.398438 27.550781 L 58.699219 27.449219 L 59 27.398438 Z M 57.851562 27.050781 L 58.199219 27 L 58.449219 27 L 58.800781 27.050781 L 59.148438 27.148438 L 59.050781 27.148438 L 58.550781 27.25 L 58.300781 27.351562 L 57.800781 27.601562 L 57.351562 27.898438 L 57 28.148438 L 56.75 28.300781 L 56.199219 28.699219 L 56 28.851562 L 55.851562 28.949219 L 54.601562 28.800781 L 54.648438 28.75 L 55.550781 28.101562 L 55.851562 27.898438 L 56.5 27.5 L 56.851562 27.351562 L 57.199219 27.199219 L 57.550781 27.101562 Z M 53 26.050781 L 53.398438 26 L 53.800781 26 L 54.199219 26.050781 L 54.550781 26.148438 L 54.601562 26.199219 L 54.199219 26.351562 L 53.148438 26.851562 L 52.050781 27.449219 L 51.148438 28 L 50.800781 28.25 L 50.75 28.300781 L 49.25 28.148438 L 49.351562 28.050781 L 49.601562 27.800781 L 50.25 27.300781 L 51 26.800781 L 51.75 26.398438 L 52.148438 26.25 L 52.550781 26.148438 Z M 51.300781 25.699219 L 51.5 25.699219 L 51.898438 25.75 L 52.351562 25.851562 L 52.449219 25.898438 L 52.050781 26.050781 L 51.699219 26.199219 L 51.351562 26.351562 L 51 26.550781 L 50.699219 26.75 L 50.148438 27.148438 L 49.5 27.699219 L 49.300781 27.898438 L 49 28.050781 L 49 28 L 47.148438 27.851562 L 47.199219 27.851562 L 47.601562 27.351562 L 47.898438 27.050781 L 48.199219 26.75 L 48.5 26.5 L 48.851562 26.300781 L 49.199219 26.101562 L 49.550781 25.949219 L 49.800781 25.851562 L 50.25 25.75 L 50.699219 25.699219 Z M 48.898438 24.699219 L 49.148438 24.648438 L 49.5 24.648438 L 49.898438 24.75 L 50.300781 24.949219 L 50.699219 25.25 L 50.898438 25.449219 L 50.648438 25.449219 L 50.25 25.5 L 49.851562 25.601562 L 49.75 25.648438 L 49.699219 25.648438 L 49.449219 25.75 L 49.148438 25.851562 L 48.851562 26 L 48.601562 26.148438 L 48.300781 26.351562 L 47.699219 26.851562 L 47.398438 27.148438 L 47.101562 27.5 L 47.050781 27.601562 L 46.851562 27.851562 L 45.898438 27.699219 L 45.449219 27.648438 L 46.300781 26.601562 L 46.898438 25.949219 L 47.25 25.648438 L 47.5 25.449219 L 48 25.101562 L 48.300781 24.949219 L 48.601562 24.800781 Z M 47.699219 24.398438 L 48 24.351562 L 48.300781 24.351562 L 48.550781 24.449219 L 48.648438 24.550781 L 48.351562 24.648438 L 48 24.851562 L 47.601562 25.101562 L 47.25 25.398438 L 46.898438 25.75 L 46.851562 25.800781 L 46.75 25.898438 L 46.5 26.199219 L 46.148438 26.5 L 45.898438 26.800781 L 45.101562 27.699219 L 43.898438 27.550781 L 44 27.5 L 44.5 27.050781 L 45.449219 26.101562 L 45.648438 25.898438 L 46.199219 25.398438 L 46.949219 24.800781 L 47.5 24.5 Z M 46.300781 24.101562 L 46.601562 24.148438 L 46.601562 24.101562 L 46.648438 24.101562 L 46.949219 24.148438 L 47.300781 24.25 L 47.398438 24.300781 L 47.300781 24.351562 L 46.949219 24.550781 L 46.851562 24.601562 L 46.5 24.800781 L 46.300781 25 L 46.148438 25.101562 L 45.949219 25.25 L 45.699219 25.449219 L 45.5 25.699219 L 45.351562 25.851562 L 45.050781 26.148438 L 44.398438 26.851562 L 43.851562 27.398438 L 43.601562 27.5 L 42.5 27.351562 L 42.050781 27.300781 L 42.800781 26.351562 L 43.199219 25.898438 L 43.601562 25.5 L 44 25.148438 L 44.25 24.949219 L 44.550781 24.75 L 44.898438 24.550781 L 44.949219 24.550781 L 45.25 24.398438 L 45.300781 24.351562 L 45.398438 24.300781 L 45.699219 24.199219 L 46.050781 24.148438 Z M 44.851562 23.699219 L 45.398438 23.75 L 45.949219 23.898438 L 45.601562 24 L 45.398438 24.101562 L 45.351562 24.101562 L 45.300781 24.148438 L 45.25 24.148438 L 45.199219 24.199219 L 45 24.300781 L 44.898438 24.351562 L 44.699219 24.449219 L 44.351562 24.699219 L 44.25 24.75 L 44.199219 24.800781 L 43.851562 25.101562 L 43.199219 25.699219 L 42.351562 26.601562 L 41.851562 27.25 L 39.949219 27.050781 L 39.800781 27 L 39.648438 27 L 39.851562 26.851562 L 40.199219 26.550781 L 40.851562 26 L 41.199219 25.648438 L 41.398438 25.449219 L 42.199219 24.75 L 42.601562 24.449219 L 43 24.199219 L 43.101562 24.148438 L 43.449219 24 L 43.851562 23.851562 L 44.300781 23.699219 L 44.550781 23.648438 Z M 43.050781 23.25 L 43.550781 23.25 L 44.101562 23.351562 L 44.351562 23.5 L 44.300781 23.5 L 43.800781 23.601562 L 43.300781 23.800781 L 42.851562 24.050781 L 42.800781 24.050781 L 42.550781 24.199219 L 42.25 24.398438 L 41.949219 24.601562 L 41.699219 24.851562 L 41.101562 25.398438 L 40.398438 26.050781 L 39.601562 26.699219 L 39.199219 27 L 38.75 27 L 38.148438 26.898438 L 37.648438 26.800781 L 37.800781 26.75 L 38.101562 26.550781 L 38.398438 26.300781 L 38.898438 25.851562 L 40.398438 24.550781 L 40.898438 24.148438 L 41.449219 23.800781 L 42 23.5 L 42.550781 23.300781 Z M 38.351562 22.398438 L 39.25 22.398438 L 39 22.5 L 38.550781 22.800781 L 38.050781 23.148438 L 37.699219 23.449219 L 37.601562 23.5 L 37.25 23.800781 L 35.550781 25.25 L 34.949219 25.75 L 34.398438 26.148438 L 34.148438 26.300781 L 34.101562 26.300781 L 33.300781 26.101562 L 33.101562 26.050781 L 33.050781 26.050781 L 33.25 25.648438 L 33.550781 25.148438 L 33.898438 24.699219 L 34.25 24.300781 L 34.648438 23.898438 L 35.101562 23.550781 L 35.550781 23.25 L 35.851562 23.050781 L 36.550781 22.699219 L 36.949219 22.550781 L 37.050781 22.5 L 37.398438 22.398438 L 37.851562 22.300781 Z M 35.800781 22.101562 L 36.300781 22.050781 L 36.898438 22.101562 L 37.550781 22.199219 L 37.800781 22.25 L 37.351562 22.398438 L 37 22.449219 L 36.898438 22.5 L 36.398438 22.699219 L 35.898438 22.949219 L 35.75 23 L 35.699219 23.050781 L 35.351562 23.25 L 34.949219 23.5 L 34.601562 23.75 L 34.300781 24 L 34 24.300781 L 33.699219 24.648438 L 33.398438 25 L 33.148438 25.351562 L 32.898438 25.75 L 32.699219 26.101562 L 32.5 26.101562 L 32.199219 26 L 32 26 L 31.800781 25.949219 L 31.699219 25.949219 L 31.898438 25.550781 L 32.101562 25.199219 L 32.5 24.5 L 32.648438 24.25 L 32.949219 23.851562 L 33.25 23.449219 L 33.601562 23.101562 L 33.949219 22.800781 L 34.351562 22.550781 L 34.648438 22.398438 L 35.050781 22.25 L 35.5 22.101562 Z M 34.898438 21.949219 L 35.300781 21.949219 L 35.148438 22 L 34.648438 22.199219 L 34.550781 22.25 L 34.199219 22.398438 L 33.898438 22.601562 L 33.601562 22.800781 L 33.300781 23 L 33.050781 23.25 L 32.851562 23.5 L 32.449219 24.148438 L 32.199219 24.601562 L 31.949219 25.050781 L 31.800781 25.398438 L 31.5 25.851562 L 30.648438 25.699219 L 30.5 25.699219 L 30.601562 25.351562 L 30.898438 24.648438 L 31.101562 24.300781 L 31.300781 24 L 31.800781 23.398438 L 32.101562 23.148438 L 32.398438 22.898438 L 33.101562 22.5 L 33.449219 22.351562 L 33.851562 22.199219 L 34.25 22.101562 L 34.648438 22.050781 Z M 33.351562 21.5 L 33.851562 21.550781 L 34.351562 21.699219 L 34.449219 21.75 L 34.101562 21.800781 L 33.648438 21.898438 L 33.199219 22.050781 L 32.800781 22.25 L 32.398438 22.5 L 32 22.75 L 31.648438 23.050781 L 31.351562 23.398438 L 31 23.800781 L 30.5 24.699219 L 30.300781 25.199219 L 30.199219 25.550781 L 28.949219 25.351562 L 29.101562 24.949219 L 29.300781 24.449219 L 29.550781 23.949219 L 29.851562 23.5 L 30.148438 23.101562 L 30.449219 22.75 L 30.800781 22.398438 L 31.148438 22.101562 L 31.449219 21.898438 L 31.5 21.898438 L 31.898438 21.699219 L 32.25 21.601562 L 32.398438 21.550781 L 32.851562 21.5 Z M 31.601562 21.148438 L 32 21.199219 L 32.398438 21.300781 L 32.449219 21.351562 L 32.351562 21.351562 L 31.898438 21.5 L 31.5 21.648438 L 31.398438 21.699219 L 31.050781 21.898438 L 30.699219 22.148438 L 30.398438 22.398438 L 29.898438 22.949219 L 29.5 23.550781 L 29.199219 24.148438 L 28.898438 24.851562 L 28.699219 25.300781 L 27.898438 25.101562 L 27.5 25.050781 L 27.601562 24.851562 L 27.75 24.5 L 28.050781 23.851562 L 28.449219 23.199219 L 28.5 23.101562 L 28.75 22.800781 L 29.050781 22.449219 L 29.398438 22.101562 L 29.75 21.800781 L 30.101562 21.550781 L 30.449219 21.351562 L 30.800781 21.25 L 31.199219 21.148438 Z M 30.25 20.648438 L 30.25 20.601562 L 30.449219 20.601562 L 30.851562 20.75 L 31.101562 20.898438 L 30.601562 21.050781 L 30.25 21.199219 L 29.898438 21.398438 L 29.601562 21.601562 L 29.300781 21.851562 L 29 22.148438 L 28.5 22.75 L 28.351562 23 L 28.25 23.101562 L 27.949219 23.5 L 27.449219 24.550781 L 27.25 25 L 26.5 24.75 L 27.148438 23.449219 L 27.550781 22.75 L 27.949219 22.148438 L 28.199219 21.800781 L 29 21 L 29.300781 20.800781 L 29.601562 20.699219 L 29.898438 20.648438 Z M 28.699219 20.25 L 29.199219 20.25 L 29.648438 20.351562 L 29.75 20.398438 L 29.601562 20.449219 L 29.199219 20.648438 L 28.800781 20.898438 L 28.449219 21.199219 L 28.101562 21.601562 L 27.75 22 L 27.449219 22.449219 L 27.351562 22.648438 L 27.25 22.800781 L 26.601562 23.898438 L 26.199219 24.699219 L 24.898438 24.449219 L 25 24.199219 L 25.148438 23.898438 L 25.601562 23.101562 L 25.898438 22.648438 L 26.148438 22.300781 L 26.351562 22 L 26.898438 21.398438 L 27.199219 21.101562 L 27.5 20.851562 L 27.800781 20.648438 L 28 20.5 L 28.25 20.398438 Z M 27.601562 19.898438 L 28.050781 20 L 28.300781 20.101562 L 28 20.25 L 27.898438 20.300781 L 27.699219 20.398438 L 27.25 20.75 L 26.800781 21.148438 L 26.398438 21.601562 L 26 22.050781 L 25.949219 22.148438 L 25.898438 22.199219 L 25.398438 22.898438 L 25.199219 23.25 L 24.851562 23.898438 L 24.699219 24.199219 L 24.648438 24.398438 L 23.601562 24.148438 L 23.800781 23.699219 L 24.300781 22.699219 L 24.550781 22.25 L 25 21.5 L 25.25 21.148438 L 25.351562 21 L 25.699219 20.648438 L 26.050781 20.351562 L 26.398438 20.101562 L 26.75 19.949219 L 27.148438 19.851562 Z M 25.800781 19.398438 L 26.25 19.398438 L 26.699219 19.550781 L 26.949219 19.648438 L 26.699219 19.699219 L 26.449219 19.800781 L 26.199219 19.898438 L 25.949219 20.050781 L 25.699219 20.25 L 25.5 20.550781 L 25.25 20.800781 L 25.101562 21 L 24.898438 21.25 L 24.601562 21.699219 L 24.351562 22.148438 L 23.851562 23.050781 L 23.5 23.601562 L 23.351562 24.101562 L 22.101562 23.851562 L 22.398438 23.199219 L 22.601562 22.800781 L 23.050781 21.851562 L 23.300781 21.398438 L 23.601562 20.949219 L 23.898438 20.550781 L 24.25 20.199219 L 24.601562 19.898438 L 24.949219 19.699219 L 25 19.648438 L 25.351562 19.5 Z M 23.550781 18.898438 L 23.949219 18.851562 L 24.398438 18.898438 L 24.898438 19.050781 L 25.300781 19.25 L 24.949219 19.449219 L 24.898438 19.449219 L 24.851562 19.5 L 24.800781 19.5 L 24.5 19.699219 L 24.199219 19.949219 L 23.949219 20.199219 L 23.5 20.75 L 23.25 21 L 22.699219 21.949219 L 22 23.449219 L 21.851562 23.75 L 21.550781 23.699219 L 20.75 23.5 L 20.699219 23.5 L 21.75 20.898438 L 22 20.449219 L 22.148438 20.199219 L 22.300781 20 L 22.5 19.699219 L 22.949219 19.25 L 23.199219 19.101562 Z M 22.601562 18.351562 L 22.898438 18.351562 L 23.199219 18.449219 L 23.449219 18.550781 L 23.5 18.601562 L 23.101562 18.800781 L 22.800781 19 L 22.75 19.050781 L 22.648438 19.101562 L 22.351562 19.449219 L 22.050781 19.851562 L 21.949219 20.050781 L 21.851562 20.148438 L 21.699219 20.5 L 21.148438 21.601562 L 20.398438 23.351562 L 18.949219 22.898438 L 18.601562 22.851562 L 18.898438 22.101562 L 19.398438 21.101562 L 19.800781 20.398438 L 20.050781 20.050781 L 20.300781 19.699219 L 20.898438 19.101562 L 21.199219 18.851562 L 21.550781 18.648438 L 21.800781 18.5 L 22 18.398438 L 22.351562 18.300781 Z M 20.449219 17.949219 L 20.699219 17.898438 L 21.101562 17.898438 L 21.5 17.949219 L 21.851562 18.101562 L 22 18.199219 L 21.800781 18.300781 L 21.699219 18.351562 L 21.5 18.351562 L 21.101562 18.550781 L 20.699219 18.851562 L 20.300781 19.199219 L 20 19.648438 L 19.648438 20.148438 L 19.300781 20.699219 L 18.949219 21.351562 L 18.648438 22.101562 L 18.5 22.550781 L 18.398438 22.800781 L 17.148438 22.449219 L 17.199219 21.949219 L 17.300781 21.550781 L 17.449219 21.050781 L 17.550781 20.800781 L 17.800781 20.300781 L 18.101562 19.800781 L 18.398438 19.351562 L 18.75 18.949219 L 19.148438 18.601562 L 19.550781 18.300781 L 19.898438 18.101562 Z M 18.75 17.648438 L 19.148438 17.648438 L 19.601562 17.75 L 19.851562 17.851562 L 19.800781 17.898438 L 19.601562 18 L 19.148438 18.25 L 18.75 18.550781 L 18.398438 18.898438 L 18.101562 19.25 L 17.800781 19.648438 L 17.601562 20.050781 L 17.398438 20.449219 L 17.25 20.851562 L 17.199219 21 L 17.101562 21.300781 L 17.050781 21.5 L 17.050781 21.550781 L 17 21.851562 L 16.949219 22.101562 L 16.898438 22.300781 L 16.898438 22.398438 L 16.699219 22.351562 L 16.25 22.199219 L 15.949219 22.101562 L 16.050781 21.851562 L 16.199219 21.398438 L 16.351562 20.949219 L 16.699219 20.050781 L 17 19.351562 L 17.148438 19.050781 L 17.351562 18.75 L 17.550781 18.449219 L 17.75 18.199219 L 17.949219 18 L 18.101562 17.898438 L 18.351562 17.800781 Z M 16.949219 17.351562 L 17.300781 17.25 L 17.601562 17.199219 L 17.949219 17.25 L 18.25 17.351562 L 18.398438 17.449219 L 18.101562 17.601562 L 18 17.648438 L 17.949219 17.648438 L 17.648438 17.898438 L 17.351562 18.199219 L 17.101562 18.550781 L 16.898438 19 L 16.851562 19.199219 L 16.648438 19.5 L 15.898438 21.300781 L 15.800781 21.648438 L 15.699219 21.898438 L 15.5 21.851562 L 15.351562 21.800781 L 15 21.648438 L 14.601562 21.550781 L 14.648438 21.148438 L 14.75 20.648438 L 14.898438 20.148438 L 15.101562 19.699219 L 15.300781 19.25 L 15.5 18.898438 L 15.851562 18.398438 L 16.25 17.949219 L 16.699219 17.550781 L 16.75 17.550781 Z M 15.25 17 L 15.550781 16.851562 L 15.851562 16.800781 L 16.148438 16.851562 L 16.398438 17 L 16.648438 17.25 L 16.5 17.300781 L 16.449219 17.300781 L 16.101562 17.550781 L 15.800781 17.851562 L 15.5 18.199219 L 15.199219 18.601562 L 15.101562 18.75 L 15.050781 19 L 14.898438 19.300781 L 14.648438 19.898438 L 14.449219 20.550781 L 14.300781 21.25 L 14.25 21.5 L 13.898438 21.398438 L 13.25 21.148438 L 13.300781 20.898438 L 13.300781 20.800781 L 13.550781 19.851562 L 13.648438 19.550781 L 13.851562 19 L 14.101562 18.5 L 14.25 18.25 L 14.550781 17.800781 L 14.75 17.601562 L 15.101562 17.199219 Z M 12.601562 20.550781 L 12.75 19.851562 L 12.898438 19.25 L 13.101562 18.601562 L 13.300781 18.050781 L 13.5 17.601562 L 13.699219 17.25 L 13.898438 17 L 14.050781 16.851562 L 14.25 16.75 L 14.398438 16.699219 L 14.648438 16.699219 L 14.800781 16.75 L 14.949219 16.800781 L 15.050781 16.898438 L 14.851562 17.050781 L 14.550781 17.351562 L 14.300781 17.75 L 14 18.199219 L 13.75 18.648438 L 13.550781 19.101562 L 13.351562 19.601562 L 13.199219 20 L 13.101562 20.449219 L 13.050781 20.75 L 13 21 L 12.851562 21 L 12.601562 20.898438 L 12.550781 20.898438 Z M 11.5 22.75 L 11.398438 23.5 L 11.351562 24.101562 L 11.351562 24.648438 L 11.398438 25.148438 L 11.5 25.550781 L 11.550781 25.648438 L 11.351562 25.601562 L 11 25.398438 L 10.800781 25.148438 L 10.648438 24.898438 L 10.5 24.648438 L 10.5 24.351562 L 10.550781 24.050781 L 10.648438 23.699219 L 10.898438 23.050781 L 11.050781 22.75 L 11.199219 22.5 L 11.449219 22 L 11.648438 22.050781 L 11.75 22.101562 L 11.699219 22.398438 L 11.699219 22.449219 Z M 12.699219 26.699219 L 12.5 26.648438 L 12.351562 26.550781 L 12.199219 26.449219 L 12.050781 26.300781 L 11.898438 26.101562 L 11.851562 25.949219 L 11.75 25.648438 L 11.648438 25.199219 L 11.601562 24.949219 L 11.601562 24.449219 L 11.699219 23.398438 L 11.800781 22.898438 L 11.851562 22.75 L 11.898438 22.601562 L 12 22.199219 L 12.898438 22.5 L 12.75 23 L 12.648438 23.601562 L 12.601562 24.199219 L 12.601562 24.5 L 12.648438 25.101562 L 12.75 25.75 L 12.800781 25.898438 L 12.949219 26.398438 L 13.050781 26.699219 Z M 14.351562 27.449219 L 14.050781 27.449219 L 13.75 27.351562 L 13.5 27.148438 L 13.300781 26.898438 L 13.101562 26.550781 L 12.949219 26.148438 L 12.851562 25.75 L 12.851562 25.699219 L 12.75 24.800781 L 12.75 24.300781 L 12.800781 23.398438 L 12.851562 23 L 12.949219 22.648438 L 13 22.449219 L 13.949219 22.800781 L 13.898438 23 L 13.800781 23.601562 L 13.75 24.25 L 13.75 24.851562 L 13.800781 25.148438 L 13.898438 25.75 L 14.050781 26.351562 L 14.300781 26.898438 L 14.5 27.25 L 14.5 27.300781 Z M 16.199219 28.148438 L 15.851562 28.101562 L 15.550781 27.949219 L 15.25 27.75 L 15 27.5 L 14.800781 27.199219 L 14.75 27.101562 L 14.601562 26.800781 L 14.398438 26.398438 L 14.25 26 L 14.148438 25.550781 L 14.101562 25.101562 L 14.050781 24.648438 L 14.050781 24.199219 L 14.101562 23.75 L 14.199219 23.300781 L 14.300781 23 L 15.449219 23.351562 L 15.5 25.449219 L 15.550781 25.75 L 15.550781 26.050781 L 15.601562 26.449219 L 15.648438 26.851562 L 15.75 27.199219 L 15.851562 27.550781 L 16 27.851562 L 16.148438 28.101562 L 16.25 28.199219 Z M 16.898438 28.351562 L 16.851562 28.300781 L 16.949219 28.300781 L 16.5 28.050781 L 16.398438 27.949219 L 16.199219 27.699219 L 16.101562 27.449219 L 16 27.199219 L 15.898438 26.851562 L 15.800781 26.101562 L 15.75 25.601562 L 15.75 25 L 15.699219 23.601562 L 15.699219 23.300781 L 15.949219 23.398438 L 16.101562 23.449219 L 16.601562 23.601562 L 16.601562 24.449219 L 16.5 25.550781 L 16.5 25.75 L 16.601562 26.25 L 16.699219 26.699219 L 16.75 27 L 16.75 27.148438 L 16.851562 27.601562 L 16.851562 27.699219 L 16.949219 28 L 17.101562 28.300781 L 17.199219 28.449219 Z M 18.800781 29.101562 L 18.351562 29 L 17.949219 28.851562 L 17.699219 28.648438 L 17.601562 28.550781 L 17.398438 28.300781 L 17.199219 27.949219 L 17.050781 27.601562 L 16.898438 27.050781 L 16.851562 26.699219 L 16.851562 25.601562 L 16.898438 24.851562 L 16.898438 24.398438 L 16.800781 23.75 L 17.648438 24 L 17.550781 24.449219 L 17.5 25 L 17.5 25.699219 L 17.550781 26.101562 L 17.601562 26.550781 L 17.898438 27.449219 L 18.050781 27.699219 L 18.351562 28.300781 L 18.648438 28.75 L 18.949219 29.148438 L 19 29.199219 Z M 20.851562 29.800781 L 20.5 29.800781 L 20.148438 29.699219 L 19.800781 29.5 L 19.5 29.199219 L 19.398438 29.101562 L 19 28.699219 L 18.648438 28.25 L 18.351562 27.75 L 18.300781 27.5 L 18.148438 27.101562 L 18 26.550781 L 17.898438 26 L 17.75 25.5 L 17.75 24.949219 L 17.800781 24.398438 L 17.851562 24.050781 L 18.949219 24.398438 L 18.949219 25.101562 L 19 25.800781 L 19.148438 26.601562 L 19.25 27 L 19.398438 27.398438 L 19.5 27.5 L 19.550781 27.648438 L 19.75 28.148438 L 19.800781 28.25 L 19.898438 28.398438 L 20 28.601562 L 20.148438 28.800781 L 20.25 29 L 20.550781 29.351562 L 20.851562 29.648438 L 21 29.75 Z M 22.398438 30.050781 L 22.148438 30.050781 L 21.851562 30 L 21.550781 29.898438 L 21.25 29.699219 L 20.75 29.199219 L 20.449219 28.851562 L 20.351562 28.699219 L 20.25 28.5 L 20.101562 28.25 L 20 28.050781 L 19.75 27.449219 L 19.648438 27.199219 L 19.601562 26.949219 L 19.5 26.398438 L 19.398438 25.75 L 19.351562 25.050781 L 19.351562 24.449219 L 19.648438 24.550781 L 19.949219 24.648438 L 20.550781 24.851562 L 21.101562 25 L 21.199219 25 L 21.300781 26.300781 L 21.351562 26.550781 L 21.351562 26.601562 L 21.449219 27.550781 L 21.5 28.050781 L 21.601562 28.5 L 21.75 28.949219 L 21.949219 29.351562 L 22.199219 29.699219 L 22.398438 29.851562 L 22.449219 29.898438 Z M 23.898438 30.351562 L 23.398438 30.300781 L 22.949219 30.148438 L 22.601562 29.949219 L 22.5 29.800781 L 22.351562 29.601562 L 22.148438 29.351562 L 22 29.101562 L 21.898438 28.800781 L 21.800781 28.449219 L 21.699219 28.101562 L 21.648438 27.75 L 21.550781 27 L 21.5 26.648438 L 21.5 26.050781 L 21.449219 25.199219 L 21.449219 25 L 21.648438 25.050781 L 21.800781 25.101562 L 22.601562 25.300781 L 22.699219 26.351562 L 22.75 26.699219 L 22.800781 27.050781 L 22.851562 27.398438 L 23 28.050781 L 23.101562 28.351562 L 23.199219 28.648438 L 23.25 28.75 L 23.449219 29.199219 L 23.699219 29.601562 L 24 29.949219 L 24.25 30.199219 Z M 25.699219 30.648438 L 25.25 30.601562 L 24.851562 30.449219 L 24.601562 30.300781 L 24.398438 30.101562 L 24.148438 29.851562 L 23.75 29.25 L 23.5 28.75 L 23.351562 28.351562 L 23.351562 28.300781 L 23.25 27.851562 L 23.148438 27.398438 L 23 26.449219 L 22.898438 25.449219 L 23.300781 25.550781 L 23.449219 25.601562 L 23.601562 25.648438 L 23.75 25.648438 L 23.949219 25.699219 L 24.050781 25.699219 L 24.101562 26.148438 L 24.199219 26.699219 L 24.199219 26.75 L 24.25 26.898438 L 24.398438 27.601562 L 24.5 28 L 24.648438 28.398438 L 24.699219 28.550781 L 24.699219 28.601562 L 24.75 28.75 L 24.75 28.800781 L 24.851562 29.050781 L 25 29.398438 L 25.148438 29.699219 L 25.5 30.148438 L 25.699219 30.351562 L 25.898438 30.5 L 26 30.601562 Z M 27.351562 30.851562 L 26.898438 30.800781 L 26.5 30.648438 L 26.101562 30.449219 L 25.800781 30.148438 L 25.5 29.800781 L 25.25 29.398438 L 25.050781 29 L 25 28.851562 L 24.800781 28.5 L 24.648438 28.101562 L 24.5 27.648438 L 24.300781 26.898438 L 24.25 26.699219 L 24.148438 26.101562 L 24.101562 25.800781 L 25.199219 26.101562 L 25.199219 26.300781 L 25.300781 26.898438 L 25.5 27.601562 L 25.800781 28.351562 L 25.949219 28.75 L 26.050781 28.949219 L 26.148438 29.148438 L 26.75 30.148438 L 27 30.449219 L 27.101562 30.601562 L 27.199219 30.699219 L 27.449219 30.898438 Z M 29.101562 31.199219 L 28.648438 31.148438 L 28.199219 31 L 27.800781 30.75 L 27.5 30.449219 L 27.351562 30.25 L 26.949219 29.648438 L 26.550781 29 L 26.449219 28.800781 L 26.25 28.5 L 26.050781 28 L 25.898438 27.5 L 25.75 27.050781 L 25.550781 26.148438 L 25.550781 26.101562 L 26.398438 26.300781 L 26.898438 26.398438 L 27.199219 27.550781 L 27.449219 28.351562 L 27.550781 28.699219 L 27.75 29.148438 L 27.949219 29.601562 L 28.050781 29.800781 L 28.101562 29.898438 L 28.300781 30.25 L 28.5 30.550781 L 28.75 30.851562 L 29 31.101562 L 29.148438 31.199219 Z M 30.449219 31 L 29.648438 31 L 29.300781 30.851562 L 29 30.601562 L 28.699219 30.300781 L 28.449219 29.898438 L 28.351562 29.699219 L 28.199219 29.398438 L 28.050781 29 L 27.75 28.199219 L 27.5 27.300781 L 27.199219 26.5 L 28.050781 26.648438 L 28.101562 26.898438 L 28.148438 27.25 L 28.300781 27.898438 L 28.398438 28.25 L 28.5 28.601562 L 28.648438 28.898438 L 28.800781 29.148438 L 28.949219 29.449219 L 28.949219 29.550781 L 29.148438 29.851562 L 29.199219 29.949219 L 29.398438 30.25 L 30 30.851562 L 30.101562 30.898438 Z M 31.75 31.300781 L 31.351562 31.199219 L 31 31.050781 L 30.648438 30.851562 L 30.449219 30.699219 L 30.398438 30.648438 L 30.148438 30.449219 L 29.898438 30.199219 L 29.699219 29.949219 L 29.5 29.800781 L 29.449219 29.75 L 29.199219 29.398438 L 29.050781 29.101562 L 29 28.949219 L 28.75 28.5 L 28.601562 28.050781 L 28.449219 27.550781 L 28.300781 27.050781 L 28.25 26.699219 L 29 26.851562 L 29.199219 26.898438 L 29.351562 26.949219 L 29.449219 27 L 29.550781 27.398438 L 29.550781 27.5 L 29.648438 28 L 29.800781 28.5 L 29.851562 28.601562 L 29.898438 28.75 L 30.148438 29.351562 L 30.5 29.949219 L 30.699219 30.25 L 30.949219 30.550781 L 31.25 30.800781 L 31.449219 31 L 31.851562 31.300781 L 32 31.398438 L 32.101562 31.449219 Z M 34.300781 31.648438 L 33.800781 31.601562 L 33.300781 31.5 L 32.851562 31.351562 L 32.398438 31.148438 L 32.148438 31 L 31.75 30.699219 L 31.398438 30.449219 L 31 30.050781 L 30.699219 29.648438 L 30.449219 29.25 L 30.25 28.800781 L 30.101562 28.398438 L 29.800781 27.398438 L 29.699219 27 L 30.851562 27.199219 L 30.898438 27.5 L 30.898438 27.699219 L 30.949219 27.851562 L 31 27.949219 L 31.050781 28 L 31 28 L 31 28.199219 L 31.199219 28.550781 L 31.449219 29 L 31.699219 29.398438 L 32 29.800781 L 32.300781 30.148438 L 32.648438 30.5 L 33 30.800781 L 33.398438 31.050781 L 33.800781 31.300781 L 33.949219 31.398438 L 34 31.398438 L 34.300781 31.550781 Z M 35.199219 31.648438 L 34.75 31.550781 L 34.300781 31.398438 L 34.050781 31.300781 L 33.699219 31.101562 L 33.351562 30.898438 L 32.449219 30.148438 L 31.949219 29.550781 L 31.75 29.25 L 31.550781 28.898438 L 31.5 28.449219 L 31.351562 28.101562 L 31.25 27.601562 L 31.25 27.5 L 31.199219 27.199219 L 32.148438 27.351562 L 32.5 28.199219 L 32.699219 28.648438 L 32.949219 29.050781 L 33.148438 29.449219 L 33.300781 29.75 L 33.699219 30.300781 L 34.199219 30.800781 L 34.351562 30.898438 L 34.5 31.050781 L 34.898438 31.351562 L 35.351562 31.601562 L 35.5 31.648438 Z M 37.648438 31.898438 L 37 31.851562 L 36.449219 31.75 L 35.949219 31.601562 L 35.648438 31.5 L 35.25 31.300781 L 34.898438 31.101562 L 34.601562 30.851562 L 33.949219 30.199219 L 33.648438 29.800781 L 33.398438 29.398438 L 33.25 29.148438 L 32.398438 27.398438 L 33.148438 27.5 L 33.601562 27.550781 L 33.800781 28 L 33.949219 28.300781 L 34.398438 29.050781 L 34.898438 29.699219 L 35.148438 30 L 35.449219 30.300781 L 35.75 30.550781 L 36.398438 31.050781 L 36.75 31.300781 L 37.101562 31.5 L 37.351562 31.601562 L 37.601562 31.75 L 37.75 31.800781 L 37.851562 31.851562 Z M 35.550781 28.148438 L 36.101562 28.648438 L 36.648438 29.25 L 37.5 30.199219 L 38.601562 31.300781 L 38.648438 31.351562 L 38.75 31.449219 L 39.398438 32 L 39.449219 32.050781 L 38.949219 32 L 38.550781 31.898438 L 38.101562 31.75 L 37.800781 31.648438 L 37.398438 31.449219 L 37.25 31.351562 L 36.800781 31.101562 L 36.351562 30.800781 L 35.949219 30.449219 L 35.550781 30.101562 L 35.148438 29.699219 L 34.800781 29.300781 L 34.5 28.851562 L 34.199219 28.398438 L 33.949219 27.949219 L 33.898438 27.898438 L 33.800781 27.601562 L 34.699219 27.699219 L 35 27.75 Z M 35.148438 26.449219 L 34.449219 26.398438 L 34.5 26.351562 L 34.699219 26.199219 L 35.199219 25.800781 L 35.699219 25.398438 L 37.101562 24.199219 L 37.75 23.648438 L 38.5 23.101562 L 38.851562 22.851562 L 39.25 22.648438 L 39.601562 22.449219 L 39.949219 22.351562 L 40.351562 22.300781 L 40.699219 22.398438 L 41.050781 22.449219 L 41.199219 22.449219 L 40.699219 22.699219 L 40.699219 22.800781 L 40.648438 22.851562 L 39.851562 23.148438 L 39.5 23.398438 L 39.148438 23.601562 L 38.5 24.101562 L 36.851562 25.601562 L 36.101562 26.199219 L 35.75 26.449219 Z M 36.398438 26.550781 L 36.199219 26.601562 L 35.949219 26.601562 L 36.601562 26.148438 L 37.398438 25.449219 L 38.199219 24.699219 L 39 24.050781 L 39.398438 23.75 L 39.851562 23.5 L 40.300781 23.300781 L 40.75 23.148438 L 41.101562 23.101562 L 41.75 23.050781 L 42.300781 23.101562 L 42.5 23.148438 L 42.300781 23.199219 L 41.300781 23.699219 L 40.851562 24 L 40.398438 24.300781 L 40 24.648438 L 39.25 25.300781 L 38.449219 26 L 38.398438 26.050781 L 38.050781 26.351562 L 37.699219 26.601562 L 37.449219 26.699219 L 37.351562 26.601562 L 37.148438 26.5 L 37 26.5 Z M 42.300781 32.199219 L 41.800781 32.050781 L 41.351562 31.851562 L 41.101562 31.75 L 41 31.699219 L 40.398438 31.300781 L 39.800781 30.75 L 38.648438 29.601562 L 37.949219 28.851562 L 37.601562 28.449219 L 37.199219 28.101562 L 37.101562 28 L 38 28.101562 L 38.050781 28.101562 L 38.199219 28.148438 L 38.351562 28.199219 L 38.398438 28.199219 L 38.648438 28.351562 L 38.949219 28.648438 L 39.300781 29 L 40.5 30.351562 L 40.949219 30.800781 L 41.949219 31.699219 L 42.449219 32.050781 L 42.851562 32.25 Z M 44.601562 32.351562 L 44.101562 32.398438 L 43.601562 32.300781 L 43.300781 32.148438 L 42.949219 32 L 42.050781 31.398438 L 41.648438 31.050781 L 41.25 30.699219 L 40.898438 30.351562 L 40.25 29.648438 L 39.949219 29.300781 L 39.398438 28.699219 L 39.148438 28.449219 L 38.898438 28.25 L 38.800781 28.199219 L 39.648438 28.300781 L 40.050781 28.300781 L 40.398438 28.601562 L 40.75 28.949219 L 42.148438 30.5 L 42.5 30.851562 L 42.550781 30.898438 L 43.101562 31.398438 L 43.148438 31.449219 L 43.25 31.5 L 43.699219 31.800781 L 44.148438 32.050781 L 44.648438 32.25 L 44.800781 32.300781 Z M 45.699219 32.199219 L 45.199219 32.148438 L 44.949219 32.101562 L 44.699219 32 L 44.300781 31.800781 L 43.949219 31.601562 L 43.601562 31.398438 L 43.351562 31.199219 L 42.699219 30.648438 L 42.550781 30.5 L 42.050781 29.949219 L 41.199219 28.949219 L 40.898438 28.648438 L 40.449219 28.25 L 40.699219 28.25 L 41 28.300781 L 41.648438 28.351562 L 41.800781 28.398438 L 42.300781 28.449219 L 42.550781 28.449219 L 42.898438 29 L 43.300781 29.5 L 43.648438 30 L 44 30.449219 L 44.648438 31.148438 L 45 31.449219 L 45.351562 31.699219 L 45.550781 31.851562 L 45.601562 31.898438 L 45.648438 31.949219 L 45.898438 32.101562 L 46.101562 32.199219 Z M 47.351562 32.199219 L 47.050781 32.199219 L 46.898438 32.148438 L 46.898438 32.101562 L 46.699219 32.101562 L 46.449219 32.050781 L 46.148438 31.949219 L 45.851562 31.800781 L 45.75 31.699219 L 45.449219 31.5 L 45.148438 31.25 L 44.5 30.648438 L 44.199219 30.351562 L 43.398438 29.351562 L 43.199219 29.050781 L 42.851562 28.449219 L 44 28.5 L 44.5 28.5 L 44.699219 28.75 L 45.550781 29.75 L 45.75 30.050781 L 46.148438 30.550781 L 47 31.5 L 47.75 32.148438 Z M 49 32.199219 L 48.75 32.25 L 48.5 32.199219 L 48.199219 32.101562 L 47.898438 31.898438 L 47.601562 31.648438 L 47.300781 31.351562 L 47 31 L 46.351562 30.300781 L 45.449219 29.199219 L 45.199219 28.898438 L 44.949219 28.601562 L 46.101562 28.699219 L 47.25 30.199219 L 47.351562 30.351562 L 47.398438 30.398438 L 47.449219 30.5 L 47.5 30.550781 L 47.949219 31.101562 L 48.648438 31.75 L 49 32 L 49.101562 32.050781 Z M 51.300781 32 L 50.898438 32.199219 L 50.5 32.300781 L 50.148438 32.300781 L 49.800781 32.25 L 49.449219 32.148438 L 49.25 32.050781 L 48.851562 31.75 L 48.148438 31.101562 L 47.601562 30.5 L 47.5 30.351562 L 47.398438 30.199219 L 46.398438 28.648438 L 47 28.5 L 47.101562 28.5 L 47.449219 28.699219 L 47.699219 29.148438 L 48.25 29.898438 L 48.75 30.398438 L 48.898438 30.550781 L 49.050781 30.699219 L 49.148438 30.800781 L 49.25 30.898438 L 49.5 31.101562 L 49.601562 31.148438 L 49.75 31.25 L 50.199219 31.5 L 50.300781 31.550781 L 50.851562 31.75 L 51.101562 31.851562 L 51.351562 31.898438 L 51.449219 31.898438 Z M 52.25 31.699219 L 51.851562 31.648438 L 51.449219 31.601562 L 51.101562 31.5 L 50.75 31.398438 L 50.398438 31.25 L 49.851562 30.898438 L 49.449219 30.601562 L 49.25 30.449219 L 49 30.351562 L 48.75 30.101562 L 48.5 29.800781 L 47.949219 29.101562 L 47.851562 28.898438 L 49.398438 29.050781 L 49.851562 29.601562 L 50.75 30.5 L 51.101562 30.75 L 51.800781 31.25 L 52.199219 31.5 L 52.550781 31.699219 L 52.648438 31.75 Z M 51.449219 29.601562 L 51.75 29.851562 L 52.101562 30.148438 L 53 30.800781 L 53.5 31.148438 L 53.949219 31.449219 L 54.199219 31.601562 L 54.5 31.800781 L 54.101562 31.851562 L 53.398438 31.75 L 53.300781 31.699219 L 52.851562 31.5 L 52.5 31.351562 L 51.851562 30.949219 L 51.550781 30.75 L 50.699219 30.050781 L 50.449219 29.800781 L 49.75 29.050781 L 50.300781 29.050781 L 50.949219 29.101562 L 51 29.101562 L 51.25 29.351562 Z M 52.699219 28.550781 L 52.25 28.5 L 51.449219 28.449219 L 51.101562 28.398438 L 52.148438 27.699219 L 53.101562 27.148438 L 53.648438 26.898438 L 54.148438 26.648438 L 54.699219 26.449219 L 55.148438 26.300781 L 55.351562 26.25 L 55.648438 26.199219 L 56.050781 26.199219 L 56.398438 26.25 L 56.648438 26.398438 L 56.75 26.550781 L 56.601562 26.601562 L 56.351562 26.699219 L 56 26.851562 L 55.75 27 L 55.300781 27.199219 L 53.949219 27.949219 L 53.351562 28.25 Z M 53.949219 28.199219 L 54.5 27.898438 L 54.949219 27.648438 L 56.050781 27.101562 L 56.550781 26.898438 L 57.050781 26.75 L 57.300781 26.699219 L 57.699219 26.699219 L 57.601562 26.75 L 57.148438 26.949219 L 56.75 27.148438 L 56.351562 27.351562 L 55.601562 27.800781 L 54.699219 28.398438 L 54.300781 28.75 L 53.601562 28.648438 L 53.300781 28.601562 Z M 57.5 31.898438 L 57.300781 31.851562 L 57.050781 31.800781 L 56.800781 31.699219 L 56.550781 31.550781 L 56.449219 31.5 L 55.101562 30.601562 L 54.25 30.050781 L 54.101562 29.949219 L 53.75 29.75 L 53.398438 29.5 L 53.199219 29.199219 L 53.25 29 L 53.5 29 L 54.199219 29.25 L 54.351562 29.449219 L 55.148438 30.25 L 55.800781 30.800781 L 56.550781 31.351562 L 56.949219 31.601562 L 57.351562 31.800781 L 57.550781 31.851562 L 57.601562 31.851562 L 57.75 31.898438 Z M 58.550781 31.75 L 58.148438 31.75 L 57.851562 31.648438 L 57.648438 31.601562 L 57.398438 31.5 L 57.101562 31.351562 L 56.449219 30.949219 L 55.550781 30.300781 L 54.851562 29.699219 L 54.699219 29.550781 L 54.648438 29.5 L 55.199219 29.550781 L 56.050781 29.601562 L 57.101562 30.550781 L 57.898438 31.199219 L 58.300781 31.449219 L 58.75 31.648438 L 58.851562 31.699219 Z M 59.898438 31.5 L 59.648438 31.550781 L 59.398438 31.550781 L 59.148438 31.5 L 58.898438 31.398438 L 58.648438 31.300781 L 58.351562 31.148438 L 58 31 L 57.449219 30.550781 L 56.398438 29.601562 L 56.949219 29.648438 L 57.550781 29.699219 L 57.601562 29.800781 L 57.75 30.050781 L 57.800781 30.148438 L 58 30.351562 L 58.199219 30.550781 L 58.449219 30.75 L 58.699219 30.898438 L 58.800781 30.949219 L 58.851562 31 L 58.949219 31.050781 L 59 31.101562 L 59.101562 31.148438 L 59.300781 31.25 L 59.5 31.300781 L 59.949219 31.398438 L 60.101562 31.398438 Z M 59.648438 30.300781 L 59.75 30.398438 L 59.800781 30.449219 L 60.050781 30.648438 L 60.199219 30.75 L 60.648438 30.949219 L 60.75 31 L 61.199219 31.101562 L 61.101562 31.101562 L 60.851562 31.050781 L 60.550781 31.050781 L 60.398438 31.148438 L 60.148438 31.199219 L 59.949219 31.199219 L 59.351562 31.050781 L 59.148438 30.949219 L 59.050781 30.898438 L 58.898438 30.851562 L 58.648438 30.699219 L 58.601562 30.699219 L 58.148438 30.300781 L 58.050781 30.148438 L 58 30.050781 L 57.898438 29.898438 L 57.851562 29.851562 L 58.199219 29.898438 L 59.148438 29.949219 L 59.25 30.101562 L 59.398438 30.300781 Z M 60.398438 29.351562 L 60.25 29.398438 L 60.199219 29.449219 L 60.148438 29.449219 L 59.5 29.351562 L 59.75 29.101562 L 59.898438 29 L 60.101562 28.898438 L 60.199219 28.851562 L 60.449219 28.75 L 60.851562 28.648438 L 61.351562 28.601562 L 61.550781 28.601562 L 61.800781 28.648438 L 61.949219 28.699219 L 62.101562 28.75 L 61.75 28.75 L 61.5 28.800781 L 61.449219 28.800781 L 61.300781 28.851562 L 60.949219 28.949219 L 60.75 29.050781 Z M 60.648438 29.449219 L 61.5 29.148438 L 61.699219 29.101562 L 61.949219 29.050781 L 62.398438 29.050781 L 62.5 29.101562 L 62.550781 29.199219 L 62.601562 29.351562 L 62.601562 29.449219 L 62.351562 29.449219 L 62.148438 29.5 L 61.398438 29.699219 L 61.351562 29.75 L 60.601562 29.601562 Z M 62.449219 30.648438 L 62.398438 30.75 L 62.351562 30.800781 L 62.25 30.800781 L 61.949219 30.699219 L 61.601562 30.550781 L 61.101562 30.25 L 60.601562 29.898438 L 61.300781 30 L 62.101562 30.398438 L 62.199219 30.449219 L 62.300781 30.5 L 62.398438 30.550781 L 62.449219 30.601562 L 62.5 30.601562 Z M 62.75 30.300781 L 62.699219 30.351562 L 62.550781 30.351562 L 62.199219 30.25 L 61.898438 30.101562 L 62.5 30.148438 L 62.550781 30.148438 L 62.800781 30.199219 Z M 62.800781 29.949219 L 62.550781 29.898438 L 61.851562 29.75 L 62.351562 29.648438 L 62.601562 29.648438 L 62.75 29.699219 L 62.851562 29.851562 Z M 7.398438 35.5 L 3.699219 45.5 L 6.300781 45.5 L 7 43.5 L 10.75 43.5 L 11.449219 45.5 L 14.148438 45.5 L 10.449219 35.5 Z M 7.648438 41.5 L 8.898438 37.898438 L 10.148438 41.5 Z M 20.398438 37.601562 C 19.898438 37.601562 19.5 37.699219 19.101562 37.898438 C 18.699219 38.101562 18.5 38.351562 18 38.601562 L 18 38 L 15.5 38 L 15.5 48 L 18 48 L 18 45.050781 C 18 45.199219 18.550781 45.351562 18.851562 45.449219 C 19.148438 45.550781 19.5 45.601562 19.898438 45.601562 C 20.351562 45.601562 20.800781 45.5 21.199219 45.351562 C 21.601562 45.199219 21.949219 44.898438 22.300781 44.550781 C 22.601562 44.199219 22.851562 43.800781 23.050781 43.300781 C 23.25 42.800781 23.351562 42.199219 23.351562 41.601562 C 23.351562 40.398438 23.101562 39.449219 22.550781 38.75 C 22 38.050781 21.351562 37.601562 20.398438 37.601562 Z M 20.398438 43.300781 C 20.101562 43.699219 19.601562 43.851562 18.949219 43.851562 C 18.75 43.851562 18.648438 43.851562 18.449219 43.800781 C 18.25 43.800781 18 43.75 18 43.699219 L 18 39.898438 C 18 39.75 18.398438 39.648438 18.648438 39.601562 C 18.898438 39.550781 19.101562 39.5 19.351562 39.5 C 19.898438 39.5 20.300781 39.648438 20.550781 40 C 20.800781 40.351562 20.898438 40.851562 20.898438 41.601562 C 20.851562 42.351562 20.699219 42.898438 20.398438 43.300781 Z M 31.148438 38.25 C 30.550781 37.800781 29.550781 37.601562 28.199219 37.601562 C 27.601562 37.601562 26.949219 37.648438 26.351562 37.75 C 25.75 37.851562 25.5 37.949219 25 38 L 25 40 L 25.449219 40 C 25.648438 40 26 39.75 26.449219 39.601562 C 26.898438 39.449219 27.351562 39.351562 27.75 39.351562 C 28.398438 39.351562 28.800781 39.398438 29.148438 39.550781 C 29.5 39.699219 29.5 40 29.5 40.398438 L 29.5 40.449219 C 29 40.5 28.199219 40.550781 27.550781 40.648438 C 26.898438 40.75 26.398438 40.898438 25.949219 41.101562 C 25.5 41.300781 25.148438 41.601562 24.949219 41.949219 C 24.699219 42.300781 24.601562 42.75 24.601562 43.300781 C 24.601562 44 24.851562 44.550781 25.351562 45 C 25.851562 45.449219 26.449219 45.648438 27.148438 45.648438 C 27.449219 45.648438 27.75 45.601562 28 45.550781 C 28.25 45.5 28.5 45.398438 28.75 45.300781 C 28.898438 45.199219 29 45.101562 29.199219 44.949219 C 29.398438 44.800781 29.550781 44.699219 29.550781 44.601562 L 29.550781 45.5 L 32.050781 45.5 L 32.050781 40.25 C 32 39.351562 31.75 38.699219 31.148438 38.25 Z M 29.5 43.449219 C 29.5 43.601562 29.199219 43.75 28.949219 43.851562 C 28.699219 43.949219 28.5 44 28.25 44 C 27.949219 44 27.75 44 27.601562 43.949219 C 27.449219 43.898438 27.351562 43.851562 27.25 43.75 C 27.148438 43.648438 27.101562 43.550781 27.050781 43.449219 C 27 43.351562 27 43.199219 27 43.050781 C 27 42.800781 27.050781 42.601562 27.199219 42.449219 C 27.351562 42.300781 27.5 42.199219 27.75 42.101562 C 27.949219 42.050781 28.101562 42 28.5 41.949219 L 29.449219 41.851562 L 29.449219 43.449219 Z M 38.25 37.601562 C 37.648438 37.601562 37.101562 37.648438 36.601562 37.800781 C 36.050781 37.949219 35.601562 38.199219 35.199219 38.5 C 34.800781 38.851562 34.449219 39.25 34.199219 39.800781 C 33.949219 40.351562 33.851562 40.949219 33.851562 41.648438 C 33.851562 42.300781 33.949219 42.898438 34.199219 43.398438 C 34.449219 43.898438 34.75 44.300781 35.148438 44.648438 C 35.550781 45 36.050781 45.199219 36.601562 45.398438 C 37.148438 45.550781 37.75 45.648438 38.398438 45.648438 C 38.898438 45.648438 39.398438 45.601562 39.800781 45.5 C 40.199219 45.398438 40.550781 45.25 41.050781 45.050781 L 41.050781 43 L 40.648438 43 C 40.550781 43 40.449219 43.199219 40.351562 43.300781 C 40.25 43.398438 40.101562 43.5 39.949219 43.601562 C 39.800781 43.699219 39.601562 43.75 39.351562 43.851562 C 39.101562 43.898438 38.851562 43.949219 38.5 43.949219 C 37.851562 43.949219 37.351562 43.75 37 43.398438 C 36.648438 43.050781 36.449219 42.449219 36.449219 41.75 C 36.449219 41.050781 36.601562 40.5 36.949219 40.050781 C 37.300781 39.648438 37.800781 39.449219 38.449219 39.449219 C 38.75 39.449219 39 39.5 39.199219 39.550781 C 39.398438 39.601562 39.601562 39.699219 39.800781 39.800781 C 40 39.898438 40.148438 40.101562 40.300781 40.199219 C 40.449219 40.300781 40.550781 40.101562 40.648438 40.601562 L 41 40.601562 L 41 38.351562 C 40.5 38.148438 40.199219 38 39.75 37.898438 C 39.300781 37.699219 38.800781 37.601562 38.25 37.601562 Z M 47.550781 37.601562 C 47.050781 37.601562 46.648438 37.699219 46.25 37.851562 C 45.851562 38.050781 45.5 38.300781 45 38.648438 L 45 35 L 42.5 35 L 42.5 45.5 L 45 45.5 L 45 40.050781 C 45.5 39.898438 45.5 39.800781 45.75 39.699219 C 46 39.648438 46.199219 39.601562 46.398438 39.601562 C 46.699219 39.601562 46.949219 39.648438 47.148438 39.699219 C 47.300781 39.800781 47.449219 39.898438 47.550781 40.050781 C 47.648438 40.199219 47.550781 40.398438 47.601562 40.699219 C 47.648438 41 47.550781 41.300781 47.550781 41.601562 L 47.550781 45.5 L 50.050781 45.5 L 50.050781 40.5 C 50.050781 39.550781 49.898438 38.851562 49.449219 38.351562 C 48.949219 37.851562 48.398438 37.601562 47.550781 37.601562 Z M 56.199219 37.601562 C 54.851562 37.601562 53.800781 37.949219 53.050781 38.699219 C 52.300781 39.449219 51.898438 40.449219 51.898438 41.699219 C 51.898438 42.949219 52.300781 43.949219 53.101562 44.648438 C 53.898438 45.351562 55.101562 45.699219 56.601562 45.699219 C 57.199219 45.699219 57.851562 45.648438 58.351562 45.550781 C 58.851562 45.449219 59.050781 45.300781 60.050781 45.050781 L 60.050781 43.050781 L 59.550781 43.050781 C 59.25 43.550781 58.898438 43.5 58.398438 43.648438 C 57.898438 43.851562 57.398438 43.949219 56.898438 43.949219 C 56.101562 43.949219 55.449219 43.75 55.050781 43.449219 C 54.648438 43.148438 54.398438 42.550781 54.351562 42.050781 L 60 42.050781 L 60 41.300781 C 60 40.148438 59.648438 39.25 59 38.601562 C 58.398438 37.898438 57.398438 37.601562 56.199219 37.601562 Z M 54.300781 40.5 C 54.351562 40 54.5 39.648438 54.800781 39.398438 C 55.101562 39.148438 55.5 39.050781 55.949219 39.050781 C 56.449219 39.050781 56.851562 39.101562 57.050781 39.398438 C 57.300781 39.648438 57.398438 40 57.449219 40.5 Z M 54.300781 40.5 "/>
</g>
</svg>
