<?xml version="1.0" encoding="UTF-8"?>
<svg xmlns="http://www.w3.org/2000/svg" xmlns:xlink="http://www.w3.org/1999/xlink" width="64px" height="64px" viewBox="0 0 64 64" version="1.1">
<g id="surface1">
<path style=" stroke:none;fill-rule:nonzero;fill:rgb(0%,45.490196%,74.117647%);fill-opacity:1;" d="M 23.808594 49.058594 C 23.808594 49.058594 21.425781 50.445312 25.507812 50.914062 C 30.453125 51.480469 32.980469 51.398438 38.429688 50.367188 C 38.429688 50.367188 39.863281 51.265625 41.867188 52.042969 C 29.648438 57.28125 14.210938 51.742188 23.808594 49.058594 Z M 22.316406 42.226562 C 22.316406 42.226562 19.640625 44.207031 23.726562 44.628906 C 29.007812 45.175781 33.179688 45.21875 40.402344 43.828125 C 40.402344 43.828125 41.398438 44.84375 42.96875 45.394531 C 28.199219 49.714844 11.746094 45.734375 22.316406 42.226562 Z M 22.316406 42.226562 "/>
<path style=" stroke:none;fill-rule:nonzero;fill:rgb(91.764706%,17.647059%,18.039216%);fill-opacity:1;" d="M 34.902344 30.636719 C 37.914062 34.101562 34.109375 37.21875 34.109375 37.21875 C 34.109375 37.21875 41.753906 33.273438 38.246094 28.332031 C 34.964844 23.722656 32.453125 21.4375 46.0625 13.542969 C 46.0625 13.542969 24.699219 18.878906 34.902344 30.636719 Z M 34.902344 30.636719 "/>
<path style=" stroke:none;fill-rule:nonzero;fill:rgb(0%,45.490196%,74.117647%);fill-opacity:1;" d="M 51.0625 54.113281 C 51.0625 54.113281 52.824219 55.570312 49.117188 56.695312 C 42.066406 58.828125 19.765625 59.472656 13.570312 56.78125 C 11.34375 55.808594 15.519531 54.46875 16.832031 54.183594 C 18.203125 53.886719 18.984375 53.941406 18.984375 53.941406 C 16.507812 52.199219 2.976562 57.367188 12.113281 58.847656 C 37.023438 62.886719 57.523438 57.03125 51.0625 54.113281 Z M 24.957031 35.148438 C 24.957031 35.148438 13.613281 37.839844 20.941406 38.820312 C 24.035156 39.234375 30.199219 39.140625 35.945312 38.65625 C 40.640625 38.261719 45.351562 37.421875 45.351562 37.421875 C 45.351562 37.421875 43.699219 38.128906 42.5 38.949219 C 30.976562 41.976562 8.726562 40.566406 15.132812 37.46875 C 20.550781 34.847656 24.957031 35.148438 24.957031 35.148438 Z M 45.304688 46.519531 C 57.015625 40.4375 51.601562 34.589844 47.820312 35.378906 C 46.898438 35.570312 46.480469 35.738281 46.480469 35.738281 C 46.480469 35.738281 46.824219 35.199219 47.480469 34.964844 C 54.957031 32.339844 60.707031 42.71875 45.070312 46.828125 C 45.070312 46.828125 45.25 46.664062 45.304688 46.519531 Z M 45.304688 46.519531 "/>
<path style=" stroke:none;fill-rule:nonzero;fill:rgb(91.764706%,17.647059%,18.039216%);fill-opacity:1;" d="M 38.246094 0.792969 C 38.246094 0.792969 44.730469 7.28125 32.09375 17.253906 C 21.960938 25.257812 29.785156 29.820312 32.089844 35.035156 C 26.175781 29.699219 21.835938 25 24.746094 20.628906 C 29.019531 14.210938 40.859375 11.097656 38.246094 0.792969 Z M 38.246094 0.792969 "/>
<path style=" stroke:none;fill-rule:nonzero;fill:rgb(0%,45.490196%,74.117647%);fill-opacity:1;" d="M 26.105469 63.011719 C 37.34375 63.730469 54.605469 62.609375 55.015625 57.292969 C 55.015625 57.292969 54.230469 59.308594 45.726562 60.90625 C 36.132812 62.714844 24.300781 62.503906 17.285156 61.34375 C 17.285156 61.34375 18.722656 62.535156 26.105469 63.011719 Z M 26.105469 63.011719 "/>
</g>
</svg>
