<?xml version="1.0" encoding="UTF-8"?>
<svg xmlns="http://www.w3.org/2000/svg" xmlns:xlink="http://www.w3.org/1999/xlink" width="64px" height="64px" viewBox="0 0 64 64" version="1.1">
<g id="surface1">
<path style=" stroke:none;fill-rule:nonzero;fill:rgb(0%,38.039216%,54.117647%);fill-opacity:1;" d="M 58.472656 48.902344 C 55.042969 48.808594 52.421875 49.128906 50.179688 50.074219 C 49.546875 50.34375 48.527344 50.351562 48.425781 51.148438 C 48.773438 51.515625 48.828125 52.0625 49.109375 52.511719 C 49.640625 53.378906 50.546875 54.539062 51.351562 55.148438 C 52.234375 55.8125 53.140625 56.523438 54.085938 57.097656 C 55.761719 58.121094 57.636719 58.707031 59.253906 59.730469 C 60.207031 60.335938 61.152344 61.097656 62.082031 61.78125 C 62.542969 62.117188 62.851562 62.640625 63.449219 62.855469 L 63.449219 62.757812 C 63.136719 62.355469 63.054688 61.808594 62.765625 61.390625 L 61.496094 60.121094 C 60.257812 58.476562 58.683594 57.03125 57.007812 55.828125 C 55.675781 54.871094 52.6875 53.578125 52.132812 52.023438 L 52.035156 51.925781 C 52.980469 51.820312 54.089844 51.476562 54.960938 51.242188 C 56.429688 50.851562 57.738281 50.953125 59.253906 50.5625 L 61.300781 49.976562 L 61.300781 49.585938 C 60.535156 48.800781 59.992188 47.761719 59.15625 47.050781 C 56.972656 45.191406 54.585938 43.332031 52.132812 41.78125 C 50.769531 40.921875 49.089844 40.363281 47.644531 39.636719 C 47.160156 39.390625 46.304688 39.261719 45.984375 38.855469 C 45.226562 37.886719 44.816406 36.664062 44.230469 35.539062 C 43.003906 33.179688 41.804688 30.601562 40.71875 28.121094 C 39.976562 26.429688 39.496094 24.761719 38.570312 23.242188 C 34.140625 15.960938 29.375 11.566406 21.988281 7.242188 C 20.414062 6.324219 18.523438 5.960938 16.523438 5.488281 C 15.449219 5.421875 14.375 5.359375 13.304688 5.292969 C 12.648438 5.019531 11.96875 4.21875 11.351562 3.828125 C 8.90625 2.28125 2.628906 -1.078125 0.816406 3.339844 C -0.328125 6.132812 2.527344 8.851562 3.546875 10.269531 C 4.265625 11.257812 5.183594 12.371094 5.695312 13.488281 C 6.03125 14.21875 6.089844 14.957031 6.378906 15.730469 C 7.085938 17.640625 7.703125 19.722656 8.621094 21.488281 C 9.085938 22.382812 9.59375 23.320312 10.183594 24.121094 C 10.539062 24.613281 11.15625 24.828125 11.253906 25.585938 C 10.652344 26.425781 10.617188 27.738281 10.28125 28.804688 C 8.753906 33.613281 9.328125 39.589844 11.546875 43.144531 C 12.226562 44.238281 13.832031 46.582031 16.035156 45.683594 C 17.964844 44.898438 17.53125 42.464844 18.085938 40.316406 C 18.210938 39.828125 18.132812 39.472656 18.378906 39.144531 L 18.378906 39.242188 L 20.132812 42.753906 C 21.433594 44.847656 23.738281 47.035156 25.695312 48.511719 C 26.707031 49.277344 27.507812 50.601562 28.816406 51.050781 L 28.816406 50.949219 L 28.71875 50.949219 C 28.464844 50.554688 28.066406 50.390625 27.742188 50.074219 C 26.980469 49.324219 26.132812 48.394531 25.5 47.535156 C 23.722656 45.125 22.152344 42.480469 20.71875 39.734375 C 20.035156 38.417969 19.441406 36.972656 18.863281 35.632812 C 18.644531 35.121094 18.644531 34.339844 18.183594 34.074219 C 17.550781 35.050781 16.621094 35.84375 16.132812 37 C 15.351562 38.847656 15.253906 41.101562 14.964844 43.441406 C 14.792969 43.5 14.867188 43.457031 14.769531 43.535156 C 13.410156 43.210938 12.933594 41.808594 12.425781 40.609375 C 11.148438 37.574219 10.910156 32.6875 12.035156 29.195312 C 12.328125 28.289062 13.640625 25.445312 13.109375 24.609375 C 12.855469 23.777344 12.015625 23.292969 11.546875 22.65625 C 10.96875 21.871094 10.390625 20.835938 9.988281 19.925781 C 8.941406 17.558594 8.453125 14.902344 7.351562 12.511719 C 6.828125 11.367188 5.9375 10.210938 5.207031 9.195312 C 4.398438 8.070312 3.492188 7.238281 2.863281 5.878906 C 2.640625 5.394531 2.339844 4.617188 2.667969 4.121094 C 2.773438 3.785156 2.921875 3.644531 3.253906 3.535156 C 3.820312 3.097656 5.398438 3.679688 5.984375 3.925781 C 7.550781 4.574219 8.855469 5.195312 10.183594 6.074219 C 10.816406 6.496094 11.460938 7.308594 12.230469 7.535156 L 13.109375 7.535156 C 14.480469 7.851562 16.019531 7.632812 17.304688 8.023438 C 19.570312 8.710938 21.605469 9.785156 23.449219 10.949219 C 29.074219 14.5 33.671875 19.554688 36.816406 25.585938 C 37.320312 26.554688 37.539062 27.480469 37.988281 28.511719 C 38.886719 30.589844 40.019531 32.726562 40.914062 34.757812 C 41.804688 36.78125 42.675781 38.828125 43.9375 40.511719 C 44.601562 41.398438 47.164062 41.875 48.328125 42.367188 C 49.144531 42.710938 50.480469 43.070312 51.253906 43.535156 C 52.730469 44.425781 54.164062 45.488281 55.546875 46.464844 C 56.238281 46.953125 58.367188 48.023438 58.472656 48.902344 Z M 14.863281 11.734375 C 14.148438 11.71875 13.644531 11.8125 13.109375 11.925781 L 13.109375 12.023438 L 13.207031 12.023438 C 13.546875 12.726562 14.148438 13.179688 14.570312 13.78125 C 14.894531 14.464844 15.222656 15.148438 15.546875 15.828125 L 15.644531 15.734375 C 16.25 15.308594 16.523438 14.625 16.523438 13.585938 C 16.28125 13.332031 16.242188 13.011719 16.035156 12.710938 C 15.757812 12.304688 15.214844 12.074219 14.863281 11.734375 Z M 14.863281 11.734375 "/>
</g>
</svg>
