<?xml version="1.0" encoding="UTF-8"?>
<svg xmlns="http://www.w3.org/2000/svg" xmlns:xlink="http://www.w3.org/1999/xlink" width="64px" height="64px" viewBox="0 0 64 64" version="1.1">
<g id="surface1">
<path style=" stroke:none;fill-rule:nonzero;fill:rgb(37.254902%,72.156863%,19.607843%);fill-opacity:1;" d="M 0.851562 49.300781 C 0.550781 49.148438 0.351562 48.800781 0.351562 48.398438 C 0.351562 47.800781 0.800781 47.351562 1.398438 47.351562 C 1.601562 47.351562 1.800781 47.398438 1.949219 47.5 C 3.050781 48.25 4.25 48.601562 5.300781 48.601562 C 6.449219 48.601562 7.101562 48.101562 7.101562 47.351562 L 7.101562 47.300781 C 7.101562 46.398438 5.851562 46.101562 4.5 45.699219 C 2.800781 45.199219 0.898438 44.5 0.898438 42.300781 L 0.898438 42.25 C 0.898438 40.050781 2.699219 38.75 5 38.75 C 6.25 38.75 7.5 39.101562 8.648438 39.699219 C 9 39.898438 9.300781 40.25 9.300781 40.699219 C 9.300781 41.300781 8.800781 41.75 8.199219 41.75 C 8 41.75 7.851562 41.699219 7.648438 41.601562 C 6.699219 41.101562 5.75 40.800781 4.949219 40.800781 C 3.898438 40.800781 3.351562 41.300781 3.351562 41.949219 L 3.351562 42 C 3.351562 42.851562 4.601562 43.199219 5.949219 43.648438 C 7.648438 44.148438 9.550781 44.949219 9.550781 47 L 9.550781 47.050781 C 9.550781 49.5 7.648438 50.699219 5.25 50.699219 C 3.800781 50.699219 2.199219 50.25 0.851562 49.300781 M 19.898438 44.75 C 19.898438 42.5 18.398438 41.050781 16.601562 41.050781 C 14.800781 41.050781 13.25 42.550781 13.25 44.75 L 13.25 44.800781 C 13.25 47 14.800781 48.5 16.601562 48.5 C 18.398438 48.398438 19.898438 47 19.898438 44.75 M 10.699219 40.101562 C 10.699219 39.351562 11.25 38.75 12 38.75 C 12.75 38.75 13.351562 39.351562 13.351562 40.101562 L 13.351562 40.898438 C 14.199219 39.699219 15.398438 38.75 17.25 38.75 C 19.949219 38.75 22.601562 40.898438 22.601562 44.699219 L 22.601562 44.75 C 22.601562 48.550781 20 50.699219 17.25 50.699219 C 15.351562 50.699219 14.148438 49.75 13.351562 48.699219 L 13.351562 52.75 C 13.351562 53.5 12.75 54.050781 12 54.050781 C 11.300781 54.050781 10.699219 53.5 10.699219 52.75 L 10.699219 40.101562 M 23.699219 40.050781 C 23.699219 39.300781 24.25 38.699219 25 38.699219 C 25.75 38.699219 26.351562 39.300781 26.351562 40.050781 L 26.351562 40.699219 C 26.5 39.699219 28.101562 38.75 29.25 38.75 C 30.101562 38.75 30.550781 39.300781 30.550781 40.050781 C 30.550781 40.75 30.101562 41.199219 29.5 41.300781 C 27.601562 41.648438 26.300781 43.25 26.300781 45.550781 L 26.300781 49.351562 C 26.300781 50.050781 25.699219 50.648438 24.949219 50.648438 C 24.25 50.648438 23.648438 50.101562 23.648438 49.351562 L 23.648438 40.050781 M 31.75 40.050781 C 31.75 39.300781 32.351562 38.699219 33.101562 38.699219 C 33.851562 38.699219 34.449219 39.300781 34.449219 40.050781 L 34.449219 49.351562 C 34.449219 50.101562 33.851562 50.648438 33.101562 50.648438 C 32.351562 50.648438 31.75 50.101562 31.75 49.351562 L 31.75 40.050781 M 35.601562 40.101562 C 35.601562 39.351562 36.199219 38.75 36.949219 38.75 C 37.699219 38.75 38.351562 39.351562 38.351562 40.101562 L 38.351562 40.648438 C 39.101562 39.601562 40.25 38.75 42.101562 38.75 C 44.800781 38.75 46.351562 40.5 46.351562 43.148438 L 46.351562 49.351562 C 46.351562 50.101562 45.75 50.648438 45 50.648438 C 44.25 50.648438 43.601562 50.101562 43.601562 49.351562 L 43.601562 43.949219 C 43.601562 42.148438 42.648438 41.148438 41.050781 41.148438 C 39.449219 41.148438 38.351562 42.199219 38.351562 44 L 38.351562 49.351562 C 38.351562 50.101562 37.75 50.648438 36.949219 50.648438 C 36.199219 50.648438 35.601562 50.101562 35.601562 49.351562 L 35.601562 40.101562 M 53.25 48.449219 C 51.398438 48.449219 49.851562 47.050781 49.851562 44.75 L 49.851562 44.699219 C 49.851562 42.449219 51.398438 41 53.25 41 C 55.101562 41 56.699219 42.5 56.699219 44.699219 L 56.699219 44.75 C 56.699219 46.949219 55.101562 48.449219 53.25 48.449219 M 58 38.800781 C 57.25 38.800781 56.648438 39.398438 56.648438 40.148438 L 56.648438 40.949219 C 55.75 39.75 54.550781 38.800781 52.601562 38.800781 C 49.800781 38.800781 47.101562 40.949219 47.101562 44.800781 L 47.101562 44.851562 C 47.101562 48.648438 49.800781 50.851562 52.601562 50.851562 C 54.550781 50.851562 55.800781 49.898438 56.648438 48.851562 C 56.5 50.949219 55.199219 52 52.898438 52 C 51.550781 52 50.351562 51.648438 49.25 51.101562 C 49.101562 51.050781 48.949219 51 48.75 51 C 48.101562 51 47.601562 51.5 47.601562 52.101562 C 47.601562 52.601562 47.898438 52.949219 48.351562 53.148438 C 49.800781 53.851562 51.25 54.199219 52.949219 54.199219 C 55.101562 54.199219 56.75 53.699219 57.851562 52.648438 C 58.851562 51.699219 59.398438 50.25 59.398438 48.300781 L 59.398438 40.101562 C 59.351562 39.351562 58.75 38.800781 58 38.800781 M 34.449219 35.550781 C 34.449219 36.25 33.851562 36.851562 33.101562 36.851562 C 32.351562 36.851562 31.75 36.25 31.75 35.550781 C 31.75 34.851562 32.351562 34.25 33.101562 34.25 C 33.851562 34.25 34.449219 34.851562 34.449219 35.550781 M 41.449219 26.898438 C 38.5 30.800781 32.148438 29.5 28.050781 29.648438 C 28.050781 29.648438 27.351562 29.699219 26.601562 29.800781 C 26.601562 29.800781 26.898438 29.699219 27.199219 29.550781 C 30.050781 28.601562 31.398438 28.398438 33.148438 27.5 C 36.398438 25.851562 39.648438 22.300781 40.300781 18.601562 C 39.050781 22.148438 35.300781 25.199219 31.851562 26.449219 C 29.5 27.300781 25.25 28.101562 25.25 28.101562 L 25.101562 28 C 22.199219 26.648438 22.101562 20.5 27.398438 18.550781 C 29.699219 17.699219 31.898438 18.148438 34.398438 17.601562 C 37.050781 17 40.148438 15.050781 41.398438 12.5 C 42.800781 16.648438 44.5 23 41.449219 26.898438 Z M 41.5 11.300781 C 41.148438 12.101562 40.699219 12.851562 40.199219 13.5 C 38 11.300781 34.949219 9.949219 31.550781 9.949219 C 24.898438 9.949219 19.5 15.25 19.5 21.699219 C 19.5 25.101562 21 28.148438 23.351562 30.300781 L 23.601562 30.550781 C 23.148438 30.199219 23.101562 29.550781 23.449219 29.148438 C 23.800781 28.699219 24.449219 28.648438 24.898438 29 C 25.351562 29.351562 25.398438 30 25.050781 30.398438 C 24.699219 30.851562 24.050781 30.898438 23.601562 30.550781 L 23.800781 30.699219 C 25.898438 32.398438 28.601562 33.449219 31.550781 33.449219 C 37.898438 33.449219 43.101562 28.601562 43.550781 22.550781 C 43.949219 19.601562 43.050781 15.800781 41.5 11.300781 M 62.550781 39.601562 L 62.101562 39.601562 L 62.101562 40.199219 L 62.550781 40.199219 C 62.699219 40.199219 62.851562 40.101562 62.851562 39.898438 C 62.851562 39.699219 62.699219 39.601562 62.550781 39.601562 Z M 62.800781 41.101562 L 62.351562 40.398438 L 62.050781 40.398438 L 62.050781 41.101562 L 61.800781 41.101562 L 61.800781 39.398438 L 62.5 39.398438 C 62.800781 39.398438 63.050781 39.601562 63.050781 39.898438 C 63.050781 40.300781 62.699219 40.398438 62.601562 40.398438 L 63.050781 41.101562 Z M 62.398438 38.949219 C 61.699219 38.949219 61.101562 39.5 61.101562 40.199219 C 61.101562 40.898438 61.699219 41.449219 62.398438 41.449219 C 63.101562 41.449219 63.699219 40.898438 63.699219 40.199219 C 63.699219 39.550781 63.101562 38.949219 62.398438 38.949219 Z M 62.398438 41.75 C 61.550781 41.75 60.851562 41.101562 60.851562 40.25 C 60.851562 39.398438 61.550781 38.75 62.398438 38.75 C 63.25 38.75 63.949219 39.398438 63.949219 40.25 C 63.949219 41.050781 63.25 41.75 62.398438 41.75 "/>
</g>
</svg>
